<svg width="140" height="104" viewBox="0 0 140 104" fill="none" xmlns="http://www.w3.org/2000/svg">
<path d="M112 0H28C12.53 0 0 11.635 0 26V78C0 92.365 12.53 104 28 104H112C127.47 104 140 92.365 140 78V26C140 11.635 127.47 0 112 0ZM98.98 63.505C97.3 64.805 94.99 65.325 92.82 64.805L15.05 47.125C17.15 42.38 22.12 39 28 39H112C116.69 39 120.82 41.21 123.41 44.46L98.98 63.505ZM28 13H112C119.7 13 126 18.85 126 26V29.575C121.87 27.365 117.11 26 112 26H28C22.89 26 18.13 27.365 14 29.575V26C14 18.85 20.3 13 28 13Z" fill="#1CD5CB"/>
</svg>
