<svg width="78" height="13" viewBox="0 0 78 13" fill="none" xmlns="http://www.w3.org/2000/svg">
<path opacity="0.4" d="M76.446 4.5761V9.1523C77.3876 8.76472 78 7.86311 78 6.8642C78 5.86529 77.3876 4.96367 76.446 4.5761Z" fill="#4F3A33"/>
<rect opacity="0.35" x="50.0337" y="0.5" width="24.7422" height="11.9659" rx="2.16667" stroke="#4F3A33"/>
<rect x="51.8743" y="2.28805" width="21.0618" height="8.3897" rx="1.33333" fill="#4F3A33"/>
<path d="M34.7133 2.61356C37.3165 2.61367 39.8201 3.59082 41.7067 5.34303C41.8488 5.47831 42.0759 5.47661 42.2158 5.33921L43.5738 4.00029C43.6447 3.93061 43.6842 3.83621 43.6836 3.73799C43.683 3.63978 43.6424 3.54584 43.5707 3.47697C38.6189 -1.15899 30.807 -1.15899 25.8552 3.47697C25.7835 3.54579 25.7428 3.6397 25.7421 3.73791C25.7415 3.83613 25.7809 3.93055 25.8517 4.00029L27.2101 5.33921C27.3499 5.47681 27.5772 5.47852 27.7192 5.34303C29.606 3.5907 32.1099 2.61355 34.7133 2.61356Z" fill="#4F3A33"/>
<path d="M34.7135 6.96975C36.1437 6.96966 37.523 7.48901 38.5831 8.42687C38.7265 8.55998 38.9524 8.55709 39.0922 8.42037L40.4487 7.08145C40.5201 7.01122 40.5597 6.91595 40.5587 6.81695C40.5577 6.71795 40.5161 6.62348 40.4432 6.55468C37.2147 3.62087 32.215 3.62087 28.9865 6.55468C28.9136 6.62348 28.8719 6.71799 28.871 6.81703C28.87 6.91606 28.9098 7.01132 28.9814 7.08145L30.3375 8.42037C30.4772 8.55709 30.7031 8.55998 30.8465 8.42687C31.906 7.48963 33.2841 6.97033 34.7135 6.96975Z" fill="#4F3A33"/>
<path d="M37.3206 10.1652C37.3931 10.0956 37.4331 9.9999 37.431 9.90062C37.4289 9.80134 37.385 9.7073 37.3096 9.6407C35.8111 8.40252 33.6164 8.40252 32.1179 9.6407C32.0425 9.70725 31.9985 9.80126 31.9964 9.90054C31.9942 9.99982 32.0341 10.0956 32.1066 10.1652L34.4534 12.4784C34.5222 12.5464 34.6159 12.5847 34.7138 12.5847C34.8116 12.5847 34.9054 12.5464 34.9742 12.4784L37.3206 10.1652Z" fill="#4F3A33"/>
<path d="M1.1701 7.62715H2.3402C2.98642 7.62715 3.5103 8.13936 3.5103 8.7712V11.0593C3.5103 11.6911 2.98642 12.2034 2.3402 12.2034H1.1701C0.523871 12.2034 0 11.6911 0 11.0593V8.7712C0 8.13936 0.523871 7.62715 1.1701 7.62715Z" fill="#4F3A33"/>
<path d="M6.63022 5.3391H7.80032C8.44655 5.3391 8.97042 5.85131 8.97042 6.48315V11.0594C8.97042 11.6912 8.44655 12.2034 7.80032 12.2034H6.63022C5.984 12.2034 5.46012 11.6912 5.46012 11.0594V6.48315C5.46012 5.85131 5.984 5.3391 6.63022 5.3391Z" fill="#4F3A33"/>
<path d="M11.7009 2.66955H12.871C13.5172 2.66955 14.0411 3.18176 14.0411 3.8136V11.0593C14.0411 11.6911 13.5172 12.2033 12.871 12.2033H11.7009C11.0547 12.2033 10.5308 11.6911 10.5308 11.0593V3.8136C10.5308 3.18176 11.0547 2.66955 11.7009 2.66955Z" fill="#4F3A33"/>
<path d="M17.5514 0H18.7215C19.3678 0 19.8916 0.512209 19.8916 1.14405V11.0592C19.8916 11.691 19.3678 12.2032 18.7215 12.2032H17.5514C16.9052 12.2032 16.3814 11.691 16.3814 11.0592V1.14405C16.3814 0.512209 16.9052 0 17.5514 0V0Z" fill="#4F3A33"/>
</svg>
