<svg width="46" height="40" viewBox="0 0 46 40" fill="none" xmlns="http://www.w3.org/2000/svg">
<path d="M36.8 0H9.2C4.117 0 0 4.475 0 10V30C0 35.525 4.117 40 9.2 40H36.8C41.883 40 46 35.525 46 30V10C46 4.475 41.883 0 36.8 0ZM32.522 24.425C31.97 24.925 31.211 25.125 30.498 24.925L4.945 18.125C5.635 16.3 7.268 15 9.2 15H36.8C38.341 15 39.698 15.85 40.549 17.1L32.522 24.425ZM9.2 5H36.8C39.33 5 41.4 7.25 41.4 10V11.375C40.043 10.525 38.479 10 36.8 10H9.2C7.521 10 5.957 10.525 4.6 11.375V10C4.6 7.25 6.67 5 9.2 5Z" fill="#1CD4CB"/>
</svg>
