<svg width="34" height="11" viewBox="0 0 34 11" fill="none" xmlns="http://www.w3.org/2000/svg">
<path d="M4.47163 11C7.57975 11 9.42599 8.91479 9.42599 5.37649C9.42599 1.90357 7.46119 0 4.53938 0C1.88012 0 0 1.53303 0 3.67635C0 5.6889 1.6938 7.15654 4.02277 7.15654C5.45403 7.15654 6.61429 6.58983 7.19018 5.59445H7.33415C7.30874 8.05746 6.284 9.46698 4.49704 9.46698C3.44688 9.46698 2.60845 8.97292 2.34591 8.17371H0.16938C0.525078 9.88111 2.23582 11 4.47163 11ZM4.54785 5.7107C3.12506 5.7107 2.14266 4.85337 2.14266 3.61823C2.14266 2.43395 3.17587 1.52576 4.55632 1.52576C5.93677 1.52576 6.96999 2.44848 6.96999 3.65456C6.96999 4.8461 5.96217 5.7107 4.54785 5.7107Z" fill="#4F3A33"/>
<path d="M13.0696 5.55812C13.8742 5.55812 14.4247 5.07133 14.4247 4.43197C14.4247 3.78534 13.8742 3.30581 13.0696 3.30581C12.2735 3.30581 11.7146 3.78534 11.7146 4.43197C11.7146 5.07133 12.2735 5.55812 13.0696 5.55812ZM13.0696 10.891C13.8742 10.891 14.4247 10.4042 14.4247 9.7576C14.4247 9.11823 13.8742 8.63144 13.0696 8.63144C12.2735 8.63144 11.7146 9.11823 11.7146 9.7576C11.7146 10.4042 12.2735 10.891 13.0696 10.891Z" fill="#4F3A33"/>
<path d="M22.4214 10.7457H24.5132V8.73316H26.1647V7.1856H24.5132V0.261559H21.4305C19.7706 2.42668 18.0344 4.83884 16.4507 7.20013V8.73316H22.4214V10.7457ZM18.4748 7.12021C19.6689 5.34016 21.0833 3.40026 22.3367 1.75826H22.4552V7.22919H18.4748V7.12021Z" fill="#4F3A33"/>
<path d="M30.8923 10.7457H33.0773V0.261559H30.9008L27.708 2.18692V3.95244L30.7484 2.107H30.8923V10.7457Z" fill="#4F3A33"/>
</svg>
